<?xml version="1.0" encoding="UTF-8" standalone="no"?>
<!-- Created with Inkscape (http://www.inkscape.org/) -->

<svg
   width="100.8215mm"
   height="100mm"
   viewBox="0 0 100.8215 100"
   version="1.1"
   id="svg77025"
   inkscape:version="1.1.1 (3bf5ae0d25, 2021-09-20)"
   sodipodi:docname="Девушка_врач.svg"
   xmlns:inkscape="http://www.inkscape.org/namespaces/inkscape"
   xmlns:sodipodi="http://sodipodi.sourceforge.net/DTD/sodipodi-0.dtd"
   xmlns="http://www.w3.org/2000/svg"
   xmlns:svg="http://www.w3.org/2000/svg">
  <sodipodi:namedview
     id="namedview77027"
     pagecolor="#ffffff"
     bordercolor="#666666"
     borderopacity="1.0"
     inkscape:pageshadow="2"
     inkscape:pageopacity="0.0"
     inkscape:pagecheckerboard="0"
     inkscape:document-units="mm"
     showgrid="false"
     inkscape:zoom="0.64052329"
     inkscape:cx="264.62738"
     inkscape:cy="225.59679"
     inkscape:window-width="1920"
     inkscape:window-height="1001"
     inkscape:window-x="-9"
     inkscape:window-y="-9"
     inkscape:window-maximized="1"
     inkscape:current-layer="layer1" />
  <defs
     id="defs77022">
    <clipPath
       clipPathUnits="userSpaceOnUse"
       id="clipPath74399">
      <path
         d="M 0,0 H 500 V 500 H 0 Z"
         id="path74397" />
    </clipPath>
    <clipPath
       clipPathUnits="userSpaceOnUse"
       id="clipPath74607">
      <path
         d="m 201.708,210.429 h 6.112 v -7.153 h -6.112 z"
         id="path74605" />
    </clipPath>
    <clipPath
       clipPathUnits="userSpaceOnUse"
       id="clipPath74623">
      <path
         d="m 182.399,198.512 h 48.13 v -9.62 h -48.13 z"
         id="path74621" />
    </clipPath>
    <clipPath
       clipPathUnits="userSpaceOnUse"
       id="clipPath74639">
      <path
         d="m 161.691,189.791 h 4.387 v -4.957 h -4.387 z"
         id="path74637" />
    </clipPath>
    <clipPath
       clipPathUnits="userSpaceOnUse"
       id="clipPath74655">
      <path
         d="m 246.139,198.29 h 5.59 v -4.129 h -5.59 z"
         id="path74653" />
    </clipPath>
    <clipPath
       clipPathUnits="userSpaceOnUse"
       id="clipPath74671">
      <path
         d="m 171.835,56.453 h 4.348 V 51.37 h -4.348 z"
         id="path74669" />
    </clipPath>
    <clipPath
       clipPathUnits="userSpaceOnUse"
       id="clipPath74687">
      <path
         d="m 259.803,71.1609 h 6.22 V 56.6813 h -6.22 z"
         id="path74685" />
    </clipPath>
  </defs>
  <g
     inkscape:label="Слой 1"
     inkscape:groupmode="layer"
     id="layer1"
     transform="translate(-35.095509,-88.792768)">
    <g
       id="g74393"
       transform="matrix(0.25854617,0,0,-0.25854617,11.293147,188.79277)"
       style="stroke-width:1.36447">
      <g
         id="g74395"
         clip-path="url(#clipPath74399)"
         style="stroke-width:1.36447">
        <g
           id="g74401"
           transform="translate(385.7168,176.2422)"
           style="stroke-width:1.36447">
          <path
             d="m 0,0 c 6.175,9.91 10.663,24.068 23.647,28.288 6.386,2.075 14.171,-1.246 20.644,-2.101 6.948,-0.918 14.179,-0.832 20.893,1.251 5.252,1.63 14.438,9.237 19.514,5.489 1.996,5.03 7.765,4.099 11.603,2.063 -0.765,-3.842 -6.213,-6.038 -9.176,-8.316 -3.827,-2.942 -6.23,-6.936 -9.961,-9.959 C 73.594,13.822 68.914,12.092 65.186,9.44 60.889,6.386 57.932,2.659 52.373,2.202 44.572,1.561 33.786,6.364 26.729,1.672 21.658,-1.701 18.82,-16.954 12.785,-16.186 8.302,-15.614 0.454,-4.438 0,0"
             style="fill:#ffaca0;fill-opacity:1;fill-rule:nonzero;stroke:none;stroke-width:1.36447"
             id="path74403" />
        </g>
        <g
           id="g74405"
           transform="translate(436.4668,195.9277)"
           style="stroke-width:1.36447">
          <path
             d="m 0,0 c -1.867,0.187 -3.718,0.16 -5.585,0.457 -1.674,0.265 -3.322,0.678 -4.959,1.11 -3.326,0.879 -6.674,1.878 -10.133,2.035 -4.923,0.223 -10.437,-1.772 -12.194,-6.753 -0.07,-0.203 0.239,-0.327 0.342,-0.145 2.994,5.291 9.58,5.902 14.953,4.811 3.045,-0.619 5.98,-1.658 8.989,-2.415 2.75,-0.693 5.997,-1.424 8.786,-0.568 C 1.041,-1.209 0.818,-0.082 0,0"
             style="fill:#f2594b;fill-opacity:1;fill-rule:nonzero;stroke:none;stroke-width:1.36447"
             id="path74407" />
        </g>
        <g
           id="g74409"
           transform="translate(461.9355,207.5947)"
           style="stroke-width:1.36447">
          <path
             d="m 0,0 c -1.243,-0.66 -2.256,-1.963 -3.258,-2.932 -1.112,-1.075 -2.298,-2.079 -3.624,-2.882 -1.34,-0.813 -2.747,-1.29 -4.263,-1.656 -1.549,-0.373 -3.049,-0.656 -4.402,-1.549 -0.145,-0.096 -0.057,-0.367 0.126,-0.298 1.591,0.59 3.309,0.624 4.97,0.879 1.528,0.235 2.998,0.793 4.348,1.541 1.312,0.725 2.517,1.638 3.654,2.613 0.616,0.528 1.245,1.063 1.779,1.676 0.5,0.572 1.11,1.149 1.437,1.841 C 1.002,-0.268 0.519,0.275 0,0"
             style="fill:#f2594b;fill-opacity:1;fill-rule:nonzero;stroke:none;stroke-width:1.36447"
             id="path74411" />
        </g>
        <g
           id="g74413"
           transform="translate(470.3477,209.1455)"
           style="stroke-width:1.36447">
          <path
             d="m 0,0 c -1.011,-0.796 -1.776,-1.914 -2.592,-2.903 -0.828,-1.003 -1.656,-2.007 -2.483,-3.011 -0.804,-0.975 -1.608,-1.949 -2.41,-2.923 -0.82,-0.994 -1.523,-2.078 -2.257,-3.136 -0.11,-0.157 0.126,-0.32 0.257,-0.198 0.947,0.884 1.923,1.741 2.794,2.701 l 2.615,2.88 c 0.846,0.932 1.692,1.863 2.538,2.795 0.877,0.965 1.875,1.896 2.528,3.031 C 1.371,-0.103 0.534,0.422 0,0"
             style="fill:#f2594b;fill-opacity:1;fill-rule:nonzero;stroke:none;stroke-width:1.36447"
             id="path74415" />
        </g>
        <g
           id="g74417"
           transform="translate(136.1187,188.5703)"
           style="stroke-width:1.36447">
          <path
             d="m 0,0 c -13.435,3.505 -29.437,14.738 -35.145,27.395 -4.674,10.364 -3.303,38.616 8.985,54.885 22.335,29.569 36.008,23.152 39.654,39.802 7.742,35.358 13.735,82.136 81.037,75.489 26.396,-2.608 46.133,-28.707 49.655,-60.402 3.251,-29.266 -4.372,-34.643 6.172,-56.516 C 160.903,58.78 171.351,19.954 155.999,0 138.46,-22.796 36.58,-9.543 0,0"
             style="fill:#f26d85;fill-opacity:1;fill-rule:nonzero;stroke:none;stroke-width:1.36447"
             id="path74419" />
        </g>
        <g
           id="g74421"
           transform="translate(229.0137,255.9116)"
           style="stroke-width:1.36447">
          <path
             d="M 0,0 C -0.091,1.183 -0.107,2.487 -0.048,3.957 L -0.085,25.895 H -19.43 -38.775 L -38.812,3.957 c 0.017,-0.419 0.023,-0.816 0.029,-1.21 C -25.598,-4.9 -12.844,-5.806 0,0"
             style="fill:#e89c92;fill-opacity:1;fill-rule:nonzero;stroke:none;stroke-width:1.36447"
             id="path74423" />
        </g>
        <g
           id="g74425"
           transform="translate(272.1523,233.8193)"
           style="stroke-width:1.36447">
          <path
             d="m 0,0 c -32.108,11.76 -42.172,9.493 -43.139,22.092 -12.843,-5.806 -25.598,-4.9 -38.783,2.747 C -81.711,9.124 -90.874,12.549 -125.137,0 -160.26,-12.863 -158.883,-62.203 -158.883,-62.203 H 33.745 c 0,0 1.378,49.34 -33.745,62.203"
             style="fill:#ffaca0;fill-opacity:1;fill-rule:nonzero;stroke:none;stroke-width:1.36447"
             id="path74427" />
        </g>
        <g
           id="g74429"
           transform="translate(254.2275,315.6182)"
           style="stroke-width:1.36447">
          <path
             d="m 0,0 c 0.717,9.713 -10.636,9.379 -30.313,19.328 -19.677,9.948 -19.148,21.818 -19.148,21.818 0,0 -8.579,-2.352 -17.578,-18.095 -8.183,-14.316 -8.026,-16.884 -9.487,-11.935 -4.251,14.402 -11.056,-3.703 -10.632,-10.499 0.406,-6.504 3.692,-11.839 7.919,-13.639 0.707,-21.075 11.142,-37.77 28.905,-40.104 23.161,-3.044 34.411,6.508 42.759,26.334 4.593,-0.131 10.067,1.363 13.153,7.103 C 15.01,-2.155 -0.469,-6.35 0,0"
             style="fill:#ffaca0;fill-opacity:1;fill-rule:nonzero;stroke:none;stroke-width:1.36447"
             id="path74431" />
        </g>
        <g
           id="g74433"
           transform="translate(229.1606,260.3701)"
           style="stroke-width:1.36447">
          <path
             d="m 0,0 c 1.764,-1.832 6.883,-1.741 9.595,-3.219 3.238,-1.763 5.524,-4.337 8.358,-6.655 6.586,-5.39 12.63,-9.845 20.492,-13.095 11.683,-4.828 26.286,-9.587 34.136,-20.042 14.046,-18.707 19.37,-42.308 26.465,-64.131 1.973,-6.063 2.435,-17.736 10.126,-19.925 9.448,-2.689 19.238,10.296 24.432,16.086 6.077,6.773 11.482,13.778 16.143,21.729 3.135,5.351 4.529,10.457 10.586,7.213 5.03,-2.695 11.089,-9.827 15.178,-13.929 3.445,-3.453 9.075,-8.133 8.628,-13.231 -0.496,-5.656 -8.204,-13.885 -11.691,-17.956 -8.845,-10.324 -17.954,-19.441 -27.56,-29.07 -11.778,-11.806 -28.408,-37.659 -47.388,-29.6 -9.065,3.848 -16.089,13.496 -21.791,21.18 -4.497,6.06 -7.957,20.685 -13.771,24.173 -1.948,-9.358 -5.661,-18.021 -6.177,-27.858 -0.656,-12.531 1.831,-25.281 4.273,-37.553 7.315,-36.77 18.516,-74.775 18.523,-112.438 0,-4.891 1.573,-10.512 -3.093,-13.113 -5.826,-3.248 -17.039,0.222 -23.254,0.508 -31.364,1.445 -62.55,3.328 -93.995,3.328 -23.062,0 -46.271,0.075 -69.271,-1.142 -4.303,-0.228 -9.25,-0.941 -11.497,2.259 -2.324,3.311 -1.608,11.825 -1.715,15.609 -0.542,19.22 2.99,39.253 10.754,56.863 3.103,7.041 7.438,13.415 10.318,20.552 1.251,3.102 6.244,11.886 5.151,15.348 -1.912,6.05 -14.237,3.295 -19.01,2.651 -8.382,-1.129 -11.152,5.05 -14.219,12.639 -12.7,31.412 -1.664,67.172 5.129,98.651 3.198,14.819 5.86,29.82 9.856,44.439 2.258,8.261 7.068,14.244 12.104,21.012 9.532,12.812 26.87,12.448 39.231,21.452 5.62,4.094 13.559,13.562 20.098,12.591 1.645,-0.245 4.608,0.471 6,-0.262 0.103,-10.927 -2.319,-19.914 4.593,-30.158 7.706,-11.423 17.149,-25.448 27.467,-34.491 0.567,4.262 2.975,8.479 4.163,12.772 2.469,8.921 3.909,18.109 4.862,27.272 0.647,6.225 0.354,11.112 -1.045,17.006 C 0.359,-9.061 -1.626,-4.488 0,0"
             style="fill:#ffffff;fill-opacity:1;fill-rule:nonzero;stroke:none;stroke-width:1.36447"
             id="path74435" />
        </g>
        <g
           id="g74437"
           transform="translate(264.8789,210.7988)"
           style="stroke-width:1.36447">
          <path
             d="m 0,0 c -1.002,5.652 -2.305,11.226 -3.986,16.716 -0.829,2.707 -1.754,5.367 -2.802,7.998 -1.034,2.597 -2.3,5.003 -3.481,7.523 -0.055,0.119 -0.254,0.034 -0.213,-0.091 0.881,-2.643 1.535,-5.419 2.299,-8.109 0.77,-2.709 1.522,-5.431 2.218,-8.16 1.184,-4.642 2.178,-9.339 2.987,-14.063 -0.298,0.132 -0.599,0.255 -0.912,0.353 -0.93,0.288 -1.939,0.408 -2.902,0.53 -2.106,0.268 -4.116,0.202 -6.213,-0.115 -4.035,-0.609 -7.95,-2.068 -11.483,-4.099 -3.594,-2.065 -6.807,-4.739 -9.694,-7.703 -1.437,-1.475 -2.752,-3.007 -3.932,-4.696 -0.589,-0.842 -0.965,-1.735 -1.458,-2.63 -0.544,-0.987 -1.15,-1.853 -1.366,-2.975 -0.16,-0.827 0.637,-1.482 1.406,-1.082 0.848,0.441 1.46,1.087 2.137,1.749 0.669,0.652 1.432,1.169 2.112,1.804 1.357,1.266 2.575,2.664 3.864,3.996 2.6,2.69 5.453,5.157 8.622,7.156 3.07,1.935 6.427,3.342 9.988,4.064 1.728,0.35 3.524,0.532 5.285,0.586 0.979,0.029 1.94,-0.04 2.917,-0.096 1.032,-0.058 1.977,0.03 2.979,-0.285 C -0.587,-1.954 0.166,-0.937 0,0"
             style="fill:#dedede;fill-opacity:1;fill-rule:nonzero;stroke:none;stroke-width:1.36447"
             id="path74439" />
        </g>
        <g
           id="g74441"
           transform="translate(218.2642,189.9922)"
           style="stroke-width:1.36447">
          <path
             d="m 0,0 c -1.069,2.324 -2.826,4.393 -4.448,6.356 -1.604,1.941 -3.313,3.808 -5.041,5.639 -3.503,3.708 -7.26,7.173 -11.401,10.161 -7.789,5.62 -17.202,9.134 -26.91,8.356 -3.526,-0.283 -6.98,-1.156 -10.158,-2.643 4.271,9.211 7.995,18.627 11.027,28.341 0.069,0.223 -0.285,0.382 -0.384,0.162 -4.876,-10.739 -10.061,-21.379 -15.707,-31.735 -0.723,-1.325 0.798,-3.131 2.189,-2.19 7.362,4.989 16.441,5.054 24.739,2.642 9.03,-2.624 16.49,-8.696 22.906,-15.371 1.864,-1.94 3.636,-3.959 5.411,-5.98 C -6,1.717 -4.187,-0.421 -1.981,-1.98 -0.676,-2.903 0.539,-1.171 0,0"
             style="fill:#dedede;fill-opacity:1;fill-rule:nonzero;stroke:none;stroke-width:1.36447"
             id="path74443" />
        </g>
        <g
           id="g74445"
           transform="translate(341.041,131.334)"
           style="stroke-width:1.36447">
          <path
             d="m 0,0 c -2.255,-0.14 -4.46,-1.321 -6.369,-2.62 0.014,0.269 -0.1,0.536 -0.373,0.667 -1.125,0.539 -2.733,0.342 -3.909,0.081 -1.317,-0.291 -2.643,-0.684 -3.871,-1.246 -1.177,-0.539 -2.303,-1.21 -3.36,-1.957 -1.052,-0.744 -1.974,-1.775 -2.815,-2.748 -0.132,-0.154 0.036,-0.412 0.226,-0.294 1.053,0.657 2.163,1.113 3.263,1.668 1.095,0.553 2.23,0.989 3.4,1.351 1.141,0.354 2.271,0.699 3.448,0.915 0.625,0.115 1.238,0.207 1.853,0.37 0.23,0.059 0.468,0.107 0.704,0.159 -2.171,-1.636 -4.165,-3.512 -5.803,-5.685 -3.418,-4.533 -5.42,-9.71 -5.194,-15.424 0.01,-0.233 0.346,-0.289 0.413,-0.055 1.395,4.863 3.783,9.843 7.064,13.717 1.625,1.918 3.386,3.72 5.43,5.196 2.109,1.524 4.591,2.532 6.635,4.112 C 1.464,-1.236 0.856,0.054 0,0"
             style="fill:#dedede;fill-opacity:1;fill-rule:nonzero;stroke:none;stroke-width:1.36447"
             id="path74447" />
        </g>
        <g
           id="g74449"
           transform="translate(304.2783,173.5225)"
           style="stroke-width:1.36447">
          <path
             d="m 0,0 c -1.111,-1.395 -1.617,-3.055 -2.248,-4.707 -0.71,-1.86 -1.368,-3.738 -2.006,-5.624 -1.303,-3.856 -2.52,-7.736 -3.58,-11.667 -1.035,-3.838 -1.962,-7.689 -2.723,-11.591 -0.765,-3.923 -1.596,-8.151 -1.385,-12.161 0.053,-1.021 1.402,-1.179 1.742,-0.236 1.326,3.677 1.913,7.734 2.66,11.565 0.761,3.9 1.536,7.803 2.387,11.684 0.831,3.79 1.687,7.577 2.633,11.34 0.486,1.924 1.001,3.842 1.501,5.763 0.482,1.845 1.168,3.662 1.139,5.584 C 0.119,0.005 0.04,0.05 0,0"
             style="fill:#dedede;fill-opacity:1;fill-rule:nonzero;stroke:none;stroke-width:1.36447"
             id="path74451" />
        </g>
        <g
           id="g74453"
           transform="translate(131.6387,100.4375)"
           style="stroke-width:1.36447">
          <path
             d="M 0,0 C -1.183,1.013 -2.934,1.082 -4.452,1.055 -6.096,1.024 -7.769,0.799 -9.391,0.543 c -3.146,-0.495 -6.404,-1.155 -9.375,-2.333 -4.764,-1.889 -9.333,-5.412 -9.164,-10.999 0.006,-0.207 0.31,-0.257 0.367,-0.049 1.388,5.08 6.581,7.281 11.25,8.278 2.634,0.563 5.307,0.857 7.991,1.036 1.46,0.096 2.933,0.11 4.387,0.243 1.405,0.128 2.822,0.191 3.935,1.101 0.611,0.5 0.587,1.678 0,2.18"
             style="fill:#dedede;fill-opacity:1;fill-rule:nonzero;stroke:none;stroke-width:1.36447"
             id="path74455" />
        </g>
        <g
           id="g74457"
           transform="translate(131.856,102.4941)"
           style="stroke-width:1.36447">
          <path
             d="m 0,0 c -0.515,0.86 -1.417,1.427 -2.222,2.001 -0.934,0.664 -1.896,1.189 -2.94,1.662 -1.99,0.9 -4.066,1.578 -6.203,2.032 -2.033,0.432 -4.156,0.729 -6.238,0.701 -2.006,-0.026 -4.266,-0.105 -6.112,-0.956 -0.175,-0.08 -0.138,-0.396 0.056,-0.426 1.874,-0.296 3.793,-0.144 5.681,-0.368 2.033,-0.241 4.037,-0.584 6.003,-1.162 1.938,-0.569 3.81,-1.335 5.608,-2.254 0.891,-0.456 1.769,-0.939 2.654,-1.409 0.841,-0.446 1.644,-1.073 2.579,-1.296 C -0.301,-1.673 0.463,-0.773 0,0"
             style="fill:#dedede;fill-opacity:1;fill-rule:nonzero;stroke:none;stroke-width:1.36447"
             id="path74459" />
        </g>
        <g
           id="g74461"
           transform="translate(227.1807,41.9746)"
           style="stroke-width:1.36447">
          <path
             d="m 0,0 c -1.832,-25.451 -3.013,-50.943 -4.745,-76.401 -0.243,-3.565 -0.493,-7.129 -0.749,-10.693 -0.129,-1.782 -0.259,-3.559 -0.329,-5.344 -0.073,-1.831 0.187,-3.368 0.449,-5.172 0.07,-0.483 0.781,-0.406 0.901,0 0.433,1.462 0.918,2.757 1.07,4.28 0.159,1.584 0.296,3.163 0.397,4.752 0.199,3.167 0.393,6.335 0.582,9.504 0.382,6.435 0.742,12.873 1.078,19.311 0.662,12.679 1.267,25.358 1.557,38.051 C 0.376,-14.473 0.485,-7.241 0.467,0 0.466,0.304 0.021,0.297 0,0"
             style="fill:#dedede;fill-opacity:1;fill-rule:nonzero;stroke:none;stroke-width:1.36447"
             id="path74463" />
        </g>
        <g
           id="g74465"
           transform="translate(240.2783,321.3394)"
           style="stroke-width:1.36447">
          <path
             d="m 0,0 c -0.96,1.357 -2.143,2.374 -3.587,3.189 -1.38,0.78 -2.932,1.316 -4.495,1.574 -0.831,0.137 -1.672,0.182 -2.512,0.1 -0.486,-0.048 -0.971,-0.129 -1.434,-0.287 -0.506,-0.172 -0.687,-0.425 -1.088,-0.723 0.188,0.179 0.198,0.201 0.031,0.068 -0.144,-0.125 -0.279,-0.258 -0.406,-0.399 -0.381,-0.414 -0.446,-1.094 -0.252,-1.602 0.225,-0.589 0.685,-0.854 1.255,-1.026 0.089,-0.035 0.181,-0.055 0.277,-0.06 -0.271,0.088 -0.257,0.085 0.043,-0.007 0.348,-0.105 0.674,-0.117 1.043,-0.104 0.309,0.011 0.612,0.064 0.919,0.095 0.658,0.064 1.331,0.111 1.993,0.115 0.079,0.001 0.184,-0.003 0.237,-0.004 0.142,-0.009 0.285,-0.017 0.427,-0.03 0.333,-0.03 0.666,-0.075 0.996,-0.132 0.328,-0.058 0.654,-0.128 0.976,-0.212 0.057,-0.015 0.544,-0.16 0.269,-0.073 0.148,-0.047 0.296,-0.097 0.443,-0.149 1.186,-0.428 2.418,-0.974 3.473,-1.665 0.551,-0.361 1.073,-0.764 1.554,-1.214 0.49,-0.46 0.883,-1.003 1.346,-1.489 C 1.596,-4.128 1.775,-4.089 1.76,-3.938 1.622,-2.553 0.792,-1.119 0,0"
             style="fill:#f26d85;fill-opacity:1;fill-rule:nonzero;stroke:none;stroke-width:1.36447"
             id="path74467" />
        </g>
        <g
           id="g74469"
           transform="translate(195.0874,332.8813)"
           style="stroke-width:1.36447">
          <path
             d="m 0,0 c 1.413,0.876 2.897,1.353 4.545,1.542 1.576,0.18 3.213,0.07 4.753,-0.301 0.82,-0.198 1.612,-0.483 2.353,-0.886 0.43,-0.233 0.845,-0.497 1.21,-0.822 0.398,-0.356 0.467,-0.659 0.721,-1.09 -0.104,0.238 -0.105,0.263 -0.002,0.075 0.084,-0.171 0.156,-0.346 0.218,-0.526 0.19,-0.529 -0.015,-1.181 -0.392,-1.573 -0.437,-0.456 -0.963,-0.521 -1.555,-0.457 -0.096,0.003 -0.188,0.02 -0.279,0.053 0.284,-0.025 0.27,-0.022 -0.041,0.009 -0.363,0.039 -0.667,0.156 -1.001,0.311 -0.28,0.13 -0.54,0.297 -0.811,0.445 -0.581,0.316 -1.183,0.621 -1.79,0.882 C 7.856,-2.307 7.758,-2.269 7.708,-2.25 7.574,-2.202 7.44,-2.154 7.304,-2.111 6.984,-2.009 6.661,-1.92 6.335,-1.845 6.01,-1.77 5.683,-1.708 5.353,-1.66 5.295,-1.651 4.79,-1.596 5.077,-1.622 4.922,-1.608 4.767,-1.596 4.611,-1.588 3.352,-1.52 2.004,-1.543 0.763,-1.769 0.116,-1.887 -0.522,-2.055 -1.14,-2.282 -1.771,-2.515 -2.344,-2.863 -2.959,-3.13 -3.078,-3.181 -3.227,-3.076 -3.154,-2.943 -2.488,-1.72 -1.165,-0.722 0,0"
             style="fill:#f26d85;fill-opacity:1;fill-rule:nonzero;stroke:none;stroke-width:1.36447"
             id="path74471" />
        </g>
        <g
           id="g74473"
           transform="translate(232.7427,312.9512)"
           style="stroke-width:1.36447">
          <path
             d="m 0,0 c -0.165,0.586 -0.461,1.095 -0.89,1.527 -0.233,0.18 -0.466,0.36 -0.7,0.541 C -2.129,2.38 -2.711,2.538 -3.336,2.54 -3.813,2.558 -4.257,2.458 -4.669,2.242 -5.098,2.103 -5.469,1.864 -5.782,1.527 -6.12,1.213 -6.358,0.842 -6.498,0.413 -6.715,0.001 -6.814,-0.443 -6.796,-0.92 c 0.041,-0.307 0.083,-0.613 0.124,-0.919 0.164,-0.587 0.461,-1.096 0.89,-1.527 0.233,-0.181 0.466,-0.361 0.7,-0.541 0.54,-0.313 1.122,-0.471 1.746,-0.473 0.477,-0.017 0.921,0.082 1.333,0.298 0.429,0.14 0.8,0.378 1.113,0.716 0.338,0.313 0.576,0.684 0.716,1.113 0.216,0.413 0.316,0.857 0.298,1.333 C 0.083,-0.613 0.042,-0.307 0,0"
             style="fill:#1e2040;fill-opacity:1;fill-rule:nonzero;stroke:none;stroke-width:1.36447"
             id="path74475" />
        </g>
        <g
           id="g74477"
           transform="translate(200.6895,320.3628)"
           style="stroke-width:1.36447">
          <path
             d="m 0,0 c -0.153,0.546 -0.43,1.02 -0.829,1.422 l -0.652,0.504 c -0.503,0.291 -1.045,0.438 -1.626,0.44 L -3.964,2.25 C -4.292,2.172 -4.578,2.021 -4.84,1.829 -4.943,1.786 -5.047,1.742 -5.15,1.698 -5.496,1.512 -5.773,1.257 -5.982,0.935 -6.166,0.75 -6.293,0.531 -6.364,0.28 c -0.185,-0.353 -0.27,-0.734 -0.255,-1.142 0.036,-0.263 0.07,-0.526 0.106,-0.789 0.099,-0.236 0.199,-0.472 0.299,-0.708 0.186,-0.346 0.441,-0.623 0.763,-0.832 0.194,-0.177 0.419,-0.301 0.658,-0.4 0.142,-0.081 0.285,-0.159 0.444,-0.21 0.384,-0.202 0.798,-0.295 1.242,-0.278 0.443,-0.017 0.857,0.076 1.241,0.278 0.4,0.13 0.745,0.352 1.037,0.666 0.314,0.292 0.537,0.637 0.666,1.037 0.202,0.384 0.294,0.798 0.278,1.242 C 0.076,-0.571 0.038,-0.285 0,0"
             style="fill:#1e2040;fill-opacity:1;fill-rule:nonzero;stroke:none;stroke-width:1.36447"
             id="path74479" />
        </g>
        <g
           id="g74481"
           transform="translate(211.3965,310.793)"
           style="stroke-width:1.36447">
          <path
             d="M 0,0 C 2.354,4.299 3.055,9.359 1.982,14.135 1.935,14.343 1.631,14.252 1.667,14.048 2.74,7.866 0.735,1.694 -3.492,-2.889 c -1.591,-1.726 -3.471,-3.573 -3.626,-6.059 -0.121,-1.921 0.71,-3.868 2.677,-4.396 0.543,-0.145 0.944,0.698 0.396,0.939 -2.564,1.132 -2.061,4.35 -0.752,6.235 1.5,2.158 3.519,3.836 4.797,6.17"
             style="fill:#f26d85;fill-opacity:1;fill-rule:nonzero;stroke:none;stroke-width:1.36447"
             id="path74483" />
        </g>
        <g
           id="g74485"
           transform="translate(211.5825,312.2764)"
           style="stroke-width:1.36447">
          <path
             d="m 0,0 c -0.867,-1.678 -1.975,-3.264 -3.31,-4.711 l -0.339,-0.366 c -1.486,-1.599 -3.023,-3.252 -3.156,-5.386 -0.093,-1.48 0.456,-3.384 2.308,-3.881 -0.94,0.442 -1.623,1.217 -1.911,2.239 -0.484,1.722 0.244,3.628 1.014,4.736 0.642,0.923 1.378,1.763 2.089,2.575 1.009,1.15 1.961,2.237 2.68,3.551 C -0.401,-0.835 -0.193,-0.42 0,0 m -4.503,-15.344 c -0.083,0 -0.168,0.011 -0.253,0.034 -2.004,0.538 -3.2,2.465 -3.047,4.91 0.156,2.49 1.891,4.357 3.422,6.004 l 0.336,0.362 C 0.18,0.548 2.014,6.566 0.988,12.479 0.925,12.843 1.161,13.184 1.525,13.256 1.881,13.33 2.204,13.114 2.284,12.761 3.391,7.833 2.669,2.689 0.252,-1.724 -0.52,-3.133 -1.553,-4.312 -2.552,-5.453 c -0.694,-0.791 -1.411,-1.609 -2.02,-2.486 -0.698,-1.003 -1.238,-2.597 -0.873,-3.896 0.207,-0.735 0.683,-1.272 1.416,-1.596 0.468,-0.206 0.674,-0.696 0.5,-1.191 -0.156,-0.442 -0.55,-0.722 -0.974,-0.722"
             style="fill:#f26d85;fill-opacity:1;fill-rule:nonzero;stroke:none;stroke-width:1.36447"
             id="path74487" />
        </g>
        <g
           id="g74489"
           transform="translate(199.2974,284.9165)"
           style="stroke-width:1.36447">
          <path
             d="M 0,0 C -1.842,2.218 -3.638,5.333 -3.946,8.662 -3.975,8.976 -3.739,9.405 -3.497,9.298 4.16,5.908 11.455,5.385 19.658,5.101 19.856,5.094 20.023,4.931 19.999,4.69 19.119,-3.93 4.057,-4.884 0,0"
             style="fill:#ffffff;fill-opacity:1;fill-rule:nonzero;stroke:none;stroke-width:1.36447"
             id="path74491" />
        </g>
        <g
           id="g74493"
           transform="translate(273.7715,302.3047)"
           style="stroke-width:1.36447">
          <path
             d="m 0,0 c -2.444,9.582 -9.077,17.269 -17.008,22.874 -8.149,5.758 -17.521,9.488 -25.696,15.194 -4.45,3.106 -8.427,6.911 -11.514,11.387 -3.052,4.427 -4.683,9.452 -4.888,14.825 -0.009,0.25 -0.409,0.333 -0.458,0.062 -1.647,-8.918 3.66,-17.517 9.809,-23.519 7.03,-6.861 15.972,-11.119 24.326,-16.085 8.571,-5.093 16.525,-11.44 20.632,-20.793 3.817,-8.687 3.364,-19.619 -3.181,-26.906 -1.92,-2.138 -4.172,-3.938 -6.293,-5.866 -2.058,-1.873 -3.875,-4.012 -5.391,-6.346 -3.011,-4.635 -4.376,-9.892 -4.452,-15.392 -0.015,-1.073 1.745,-1.376 1.927,-0.261 0.773,4.77 2.735,9.388 5.391,13.417 2.828,4.293 7.014,7.283 10.485,10.997 C 0.262,-19.38 2.355,-9.237 0,0"
             style="fill:#ff8299;fill-opacity:1;fill-rule:nonzero;stroke:none;stroke-width:1.36447"
             id="path74495" />
        </g>
        <g
           id="g74497"
           transform="translate(274.3379,324.0347)"
           style="stroke-width:1.36447">
          <path
             d="m 0,0 c -1.621,4.83 -4.307,9.339 -7.572,13.232 -3.229,3.85 -7.201,7.151 -11.69,9.428 -5.23,2.653 -11.184,4.107 -15.798,7.872 -4.791,3.91 -7.966,9.55 -9.161,15.593 -0.067,0.337 -0.604,0.257 -0.596,-0.082 0.055,-2.577 0.43,-4.9 1.362,-7.34 0.883,-2.309 2.065,-4.512 3.575,-6.474 3.48,-4.521 8.366,-7.107 13.459,-9.426 4.943,-2.253 9.616,-4.761 13.576,-8.542 3.732,-3.562 6.712,-7.862 8.793,-12.58 1.152,-2.612 1.949,-5.317 2.727,-8.055 0.789,-2.78 0.93,-5.629 1.325,-8.471 0.096,-0.692 1.214,-0.644 1.352,0 C 2.36,-10.098 1.527,-4.551 0,0"
             style="fill:#ff8299;fill-opacity:1;fill-rule:nonzero;stroke:none;stroke-width:1.36447"
             id="path74499" />
        </g>
        <g
           id="g74501"
           transform="translate(270.4443,347.125)"
           style="stroke-width:1.36447">
          <path
             d="m 0,0 c -1.307,4.138 -3.05,8.125 -5.235,11.875 -3.281,5.629 -8.814,12.725 -15.928,13.011 -0.203,0.008 -0.294,-0.299 -0.106,-0.392 3.184,-1.574 6.011,-3.207 8.517,-5.782 2.436,-2.503 4.367,-5.435 5.982,-8.52 1.893,-3.613 3.456,-7.44 4.707,-11.321 0.608,-1.888 1.192,-3.78 1.705,-5.696 0.558,-2.084 0.938,-4.196 1.465,-6.286 0.157,-0.618 1.098,-0.481 1.102,0.149 C 2.232,-8.665 1.288,-4.083 0,0"
             style="fill:#ff8299;fill-opacity:1;fill-rule:nonzero;stroke:none;stroke-width:1.36447"
             id="path74503" />
        </g>
        <g
           id="g74505"
           transform="translate(275.6895,276.354)"
           style="stroke-width:1.36447">
          <path
             d="m 0,0 c 1.448,4.328 2.913,8.848 3.023,13.451 0.003,0.133 -0.199,0.197 -0.26,0.07 -2.201,-4.542 -3.64,-9.453 -5.61,-14.102 -1.869,-4.41 -4.3,-8.601 -6.023,-13.064 -1.768,-4.578 -1.492,-9.201 0.118,-13.783 1.485,-4.227 3.543,-9.415 7.128,-12.32 0.617,-0.5 1.726,-0.057 1.444,0.841 -0.636,2.033 -1.789,4.033 -2.708,5.959 -1.002,2.102 -2.003,4.169 -2.769,6.373 -0.772,2.22 -1.412,4.552 -1.413,6.916 -10e-4,2.328 0.696,4.576 1.586,6.707 C -3.674,-8.617 -1.495,-4.469 0,0"
             style="fill:#ff8299;fill-opacity:1;fill-rule:nonzero;stroke:none;stroke-width:1.36447"
             id="path74507" />
        </g>
        <g
           id="g74509"
           transform="translate(287.8984,249.832)"
           style="stroke-width:1.36447">
          <path
             d="M 0,0 C -2.396,6.41 -4.808,13.109 -4.895,20.036 -4.899,20.389 -5.484,20.5 -5.537,20.123 -6.485,13.3 -5.014,6.737 -2.794,0.278 c 2.305,-6.704 4.581,-13.396 6.703,-20.16 0.256,-0.815 1.514,-0.685 1.514,0.205 C 5.42,-12.77 2.376,-6.355 0,0"
             style="fill:#ff8299;fill-opacity:1;fill-rule:nonzero;stroke:none;stroke-width:1.36447"
             id="path74511" />
        </g>
        <g
           id="g74513"
           transform="translate(215.9927,377.2798)"
           style="stroke-width:1.36447">
          <path
             d="m 0,0 c -5.864,1.873 -12.331,1.339 -18.224,-0.223 -5.985,-1.586 -11.542,-4.509 -16.154,-8.366 -4.606,-3.851 -8.23,-8.706 -10.289,-14.132 -2.785,-7.341 -2.806,-15.267 -4.8,-22.782 -1.903,-7.171 -5.124,-13.996 -9.31,-20.275 -4.324,-6.486 -9.754,-12.229 -15.328,-17.811 -10.584,-10.598 -22.09,-21.231 -27.348,-35.152 -4.678,-12.387 -3.114,-29.321 9.952,-36.912 0.753,-0.437 1.646,0.596 0.962,1.153 -9.947,8.092 -12.725,20.96 -9.297,32.472 4.095,13.754 14.982,24.485 25.159,34.719 5.305,5.335 10.59,10.726 15.055,16.697 4.246,5.677 7.724,11.855 10.176,18.378 2.601,6.919 3.351,14.034 4.664,21.208 1.161,6.347 3.386,12.257 7.822,17.297 4.34,4.931 10.102,8.678 16.496,10.988 6.574,2.374 13.415,2.721 20.389,2.232 C 0.256,-0.532 0.283,-0.091 0,0"
             style="fill:#ff8299;fill-opacity:1;fill-rule:nonzero;stroke:none;stroke-width:1.36447"
             id="path74515" />
        </g>
        <g
           id="g74517"
           transform="translate(209.0513,364.4854)"
           style="stroke-width:1.36447">
          <path
             d="m 0,0 c -5.819,5.764 -14.823,2.825 -20.061,-2.232 -3.1,-2.994 -5.498,-6.736 -7.501,-10.527 -2.338,-4.428 -4.226,-9.218 -5.065,-14.167 -0.121,-0.715 0.789,-0.983 1.075,-0.317 3.265,7.593 6.226,15.941 11.697,22.302 2.371,2.757 5.335,5.093 8.906,6.019 3.487,0.903 7.555,0.524 10.598,-1.509 C -0.088,-0.606 0.227,-0.224 0,0"
             style="fill:#ff8299;fill-opacity:1;fill-rule:nonzero;stroke:none;stroke-width:1.36447"
             id="path74519" />
        </g>
        <g
           id="g74521"
           transform="translate(154.2432,287.4502)"
           style="stroke-width:1.36447">
          <path
             d="m 0,0 c 3.5,4.396 6.749,9.244 7.759,14.865 0.049,0.268 -0.306,0.363 -0.405,0.112 -4.227,-10.775 -13.73,-17.645 -20.71,-26.478 -6.336,-8.02 -10.989,-17.514 -9.141,-27.966 0.439,-2.486 1.246,-5.144 2.653,-7.268 1.461,-2.204 3.126,-3.829 5.391,-5.167 0.91,-0.537 1.894,0.718 1.132,1.466 -6.451,6.334 -7.738,16.021 -4.929,24.352 C -14.793,-15.836 -6.573,-8.258 0,0"
             style="fill:#ff8299;fill-opacity:1;fill-rule:nonzero;stroke:none;stroke-width:1.36447"
             id="path74523" />
        </g>
        <g
           id="g74525"
           transform="translate(163.1655,247.4971)"
           style="stroke-width:1.36447">
          <path
             d="m 0,0 c -1.489,0.808 -2.806,1.441 -4.027,2.669 -1.172,1.179 -2.18,2.52 -2.891,4.026 -1.728,3.66 -1.464,7.773 -0.433,11.593 2.244,8.317 7.972,15.191 9.505,23.782 0.047,0.264 -0.319,0.372 -0.405,0.112 C -1.324,32.97 -9.065,25.724 -10.652,15.919 -11.295,11.941 -10.849,7.907 -8.845,4.365 -7.194,1.447 -3.948,-1.5 -0.33,-1.219 0.277,-1.171 0.61,-0.331 0,0"
             style="fill:#ff8299;fill-opacity:1;fill-rule:nonzero;stroke:none;stroke-width:1.36447"
             id="path74527" />
        </g>
        <g
           id="g74529"
           transform="translate(175.5161,260.71)"
           style="stroke-width:1.36447">
          <path
             d="m 0,0 c -0.684,1.698 -1.355,3.313 -1.863,5.077 -0.523,1.818 -0.825,3.672 -0.823,5.567 0.003,1.828 0.191,3.701 0.634,5.477 0.445,1.784 1.181,3.494 1.775,5.231 0.042,0.123 -0.113,0.177 -0.195,0.113 C -3.61,19.034 -4.966,14.477 -5.094,10.644 -5.227,6.638 -4.273,2.137 -1.327,-0.772 -0.803,-1.289 0.311,-0.771 0,0"
             style="fill:#ff8299;fill-opacity:1;fill-rule:nonzero;stroke:none;stroke-width:1.36447"
             id="path74531" />
        </g>
        <g
           id="g74533"
           transform="translate(237.9214,302.0859)"
           style="stroke-width:1.36447">
          <path
             d="M 0,0 C -1.664,1.664 -4.149,2.322 -6.42,1.697 -7.538,1.383 -8.509,0.818 -9.332,0 c -0.818,-0.823 -1.384,-1.794 -1.697,-2.912 l -0.032,-0.228 c -0.042,-0.297 -0.082,-0.593 -0.12,-0.89 -0.191,-0.853 -0.153,-1.705 0.115,-2.557 0.269,-0.98 0.889,-2.134 1.648,-2.831 l 1.289,-0.996 c 0.462,-0.314 0.975,-0.532 1.542,-0.652 0.567,-0.077 1.136,-0.153 1.704,-0.23 0.582,0.074 1.163,0.152 1.743,0.234 0.076,0.011 0.152,0.022 0.228,0.033 1.118,0.314 2.089,0.879 2.912,1.697 0.818,0.823 1.383,1.794 1.697,2.912 C 2.322,-4.149 1.664,-1.664 0,0"
             style="fill:#fa9691;fill-opacity:1;fill-rule:nonzero;stroke:none;stroke-width:1.36447"
             id="path74535" />
        </g>
        <g
           id="g74537"
           transform="translate(197.6436,308.2944)"
           style="stroke-width:1.36447">
          <path
             d="M 0,0 C -0.316,1.125 -0.885,2.102 -1.708,2.93 -2.156,3.276 -2.604,3.623 -3.052,3.968 -4.088,4.569 -5.205,4.872 -6.404,4.875 -7.318,4.91 -8.171,4.719 -8.962,4.303 -9.785,4.035 -10.498,3.578 -11.1,2.93 c -0.647,-0.601 -1.105,-1.314 -1.372,-2.137 -0.416,-0.792 -0.607,-1.645 -0.572,-2.559 0.079,-0.588 0.158,-1.177 0.237,-1.765 0.315,-1.125 0.885,-2.102 1.707,-2.93 0.449,-0.347 0.897,-0.693 1.345,-1.039 1.036,-0.601 2.152,-0.903 3.351,-0.906 0.915,-0.035 1.768,0.156 2.559,0.572 0.823,0.268 1.536,0.725 2.137,1.373 0.647,0.601 1.105,1.314 1.373,2.137 0.416,0.791 0.606,1.644 0.572,2.558 C 0.158,-1.177 0.079,-0.589 0,0"
             style="fill:#fa9691;fill-opacity:1;fill-rule:nonzero;stroke:none;stroke-width:1.36447"
             id="path74539" />
        </g>
        <g
           id="g74541"
           transform="translate(253.3486,53.041)"
           style="stroke-width:1.36447">
          <path
             d="m 0,0 -68.052,-5.89 c -7.935,-0.686 -14.924,5.189 -15.61,13.123 l -10.193,117.766 c -0.687,7.935 5.188,14.923 13.123,15.609 l 68.052,5.891 c 7.934,0.687 14.923,-5.188 15.61,-13.123 L 13.123,15.61 C 13.81,7.676 7.935,0.687 0,0"
             style="fill:#ff5468;fill-opacity:1;fill-rule:nonzero;stroke:none;stroke-width:1.36447"
             id="path74543" />
        </g>
        <g
           id="g74545"
           transform="translate(185.0464,50.0352)"
           style="stroke-width:1.36447">
          <path
             d="m 0,0 c -6.331,-0.548 -11.927,4.157 -12.475,10.489 l -10.193,117.765 c -0.548,6.332 4.157,11.928 10.488,12.476 l 68.052,5.89 c 6.331,0.548 11.927,-4.157 12.475,-10.488 L 78.541,18.366 C 79.088,12.035 74.383,6.438 68.052,5.891 Z"
             style="fill:#e6e6e6;fill-opacity:1;fill-rule:nonzero;stroke:none;stroke-width:1.36447"
             id="path74547" />
        </g>
        <g
           id="g74549"
           transform="translate(211.8555,202.3789)"
           style="stroke-width:1.36447">
          <path
             d="m 0,0 -0.36,4.158 c -0.27,3.119 -3.043,5.45 -6.162,5.181 -3.119,-0.271 -5.45,-3.043 -5.18,-6.162 l 0.36,-4.158 -20.794,-1.8 1.309,-15.123 52.93,4.581 -1.31,15.123 z"
             style="fill:#ff5468;fill-opacity:1;fill-rule:nonzero;stroke:none;stroke-width:1.36447"
             id="path74551" />
        </g>
        <g
           id="g74553"
           transform="translate(170.9702,175.3574)"
           style="stroke-width:1.36447">
          <path
             d="M 0,0 75.767,6.558"
             style="fill:none;stroke:#ffffff;stroke-width:1.12569;stroke-linecap:butt;stroke-linejoin:miter;stroke-miterlimit:10;stroke-dasharray:none;stroke-opacity:1"
             id="path74555" />
        </g>
        <g
           id="g74557"
           transform="translate(171.5581,168.5635)"
           style="stroke-width:1.36447">
          <path
             d="M 0,0 75.767,6.559"
             style="fill:none;stroke:#ffffff;stroke-width:1.12569;stroke-linecap:butt;stroke-linejoin:miter;stroke-miterlimit:10;stroke-dasharray:none;stroke-opacity:1"
             id="path74559" />
        </g>
        <g
           id="g74561"
           transform="translate(172.1372,161.8721)"
           style="stroke-width:1.36447">
          <path
             d="M 0,0 75.767,6.558"
             style="fill:none;stroke:#ffffff;stroke-width:1.12569;stroke-linecap:butt;stroke-linejoin:miter;stroke-miterlimit:10;stroke-dasharray:none;stroke-opacity:1"
             id="path74563" />
        </g>
        <g
           id="g74565"
           transform="translate(172.71,155.2578)"
           style="stroke-width:1.36447">
          <path
             d="M 0,0 75.767,6.559"
             style="fill:none;stroke:#ffffff;stroke-width:1.12569;stroke-linecap:butt;stroke-linejoin:miter;stroke-miterlimit:10;stroke-dasharray:none;stroke-opacity:1"
             id="path74567" />
        </g>
        <g
           id="g74569"
           transform="translate(173.3047,148.3867)"
           style="stroke-width:1.36447">
          <path
             d="M 0,0 75.767,6.558"
             style="fill:none;stroke:#ffffff;stroke-width:1.12569;stroke-linecap:butt;stroke-linejoin:miter;stroke-miterlimit:10;stroke-dasharray:none;stroke-opacity:1"
             id="path74571" />
        </g>
        <g
           id="g74573"
           transform="translate(173.8882,141.6445)"
           style="stroke-width:1.36447">
          <path
             d="M 0,0 75.767,6.558"
             style="fill:none;stroke:#ffffff;stroke-width:1.12569;stroke-linecap:butt;stroke-linejoin:miter;stroke-miterlimit:10;stroke-dasharray:none;stroke-opacity:1"
             id="path74575" />
        </g>
        <g
           id="g74577"
           transform="translate(174.4717,134.9014)"
           style="stroke-width:1.36447">
          <path
             d="M 0,0 75.767,6.558"
             style="fill:none;stroke:#ffffff;stroke-width:1.12569;stroke-linecap:butt;stroke-linejoin:miter;stroke-miterlimit:10;stroke-dasharray:none;stroke-opacity:1"
             id="path74579" />
        </g>
        <g
           id="g74581"
           transform="translate(175.0552,128.1592)"
           style="stroke-width:1.36447">
          <path
             d="M 0,0 75.767,6.558"
             style="fill:none;stroke:#ffffff;stroke-width:1.12569;stroke-linecap:butt;stroke-linejoin:miter;stroke-miterlimit:10;stroke-dasharray:none;stroke-opacity:1"
             id="path74583" />
        </g>
        <g
           id="g74585"
           transform="translate(175.6353,121.4551)"
           style="stroke-width:1.36447">
          <path
             d="M 0,0 75.767,6.558"
             style="fill:none;stroke:#ffffff;stroke-width:1.12569;stroke-linecap:butt;stroke-linejoin:miter;stroke-miterlimit:10;stroke-dasharray:none;stroke-opacity:1"
             id="path74587" />
        </g>
        <g
           id="g74589"
           transform="translate(176.2222,114.6738)"
           style="stroke-width:1.36447">
          <path
             d="M 0,0 75.767,6.558"
             style="fill:none;stroke:#ffffff;stroke-width:1.12569;stroke-linecap:butt;stroke-linejoin:miter;stroke-miterlimit:10;stroke-dasharray:none;stroke-opacity:1"
             id="path74591" />
        </g>
        <g
           id="g74593"
           transform="translate(176.8325,107.6279)"
           style="stroke-width:1.36447">
          <path
             d="M 0,0 75.767,6.558"
             style="fill:none;stroke:#ffffff;stroke-width:1.12569;stroke-linecap:butt;stroke-linejoin:miter;stroke-miterlimit:10;stroke-dasharray:none;stroke-opacity:1"
             id="path74595" />
        </g>
        <g
           id="g74597"
           transform="translate(177.3896,101.1885)"
           style="stroke-width:1.36447">
          <path
             d="M 0,0 75.767,6.558"
             style="fill:none;stroke:#ffffff;stroke-width:1.12569;stroke-linecap:butt;stroke-linejoin:miter;stroke-miterlimit:10;stroke-dasharray:none;stroke-opacity:1"
             id="path74599" />
        </g>
        <g
           id="g74601"
           style="stroke-width:1.36447">
          <g
             id="g74603"
             style="stroke-width:1.36447" />
          <g
             id="g74615"
             style="stroke-width:1.36447">
            <g
               clip-path="url(#clipPath74607)"
               opacity="0.199997"
               id="g74613"
               style="stroke-width:1.86177">
              <g
                 transform="translate(206.0586,210.4053)"
                 id="g74611"
                 style="stroke-width:1.36447">
                <path
                   d="m 0,0 c -1.979,0.237 -3.54,-1.336 -4.174,-3.086 -0.446,-1.228 -0.081,-3.707 1.491,-4.024 0.345,-0.07 0.722,0.045 0.902,0.367 0.191,0.342 0.22,0.723 0.354,1.086 0.128,0.345 0.345,0.633 0.542,0.944 0.396,0.625 0.753,0.887 1.368,1.143 C 2.402,-2.771 2.095,-0.251 0,0"
                   style="fill:#ffffff;fill-opacity:1;fill-rule:nonzero;stroke:none;stroke-width:1.36447"
                   id="path74609" />
              </g>
            </g>
          </g>
        </g>
        <g
           id="g74617"
           style="stroke-width:1.36447">
          <g
             id="g74619"
             style="stroke-width:1.36447" />
          <g
             id="g74631"
             style="stroke-width:1.36447">
            <g
               clip-path="url(#clipPath74623)"
               opacity="0.199997"
               id="g74629"
               style="stroke-width:1.86177">
              <g
                 transform="translate(228.2769,198.3838)"
                 id="g74627"
                 style="stroke-width:1.36447">
                <path
                   d="m 0,0 c -8.083,0.634 -16.977,-1.231 -24.988,-2.39 -4.19,-0.605 -8.396,-1.229 -12.532,-2.144 -1.327,-0.294 -2.927,-0.988 -4.258,-1.122 -1.558,-1.422 -2.35,-1.015 -2.376,1.222 -0.125,1.09 -0.385,2.148 -0.78,3.172 -0.057,0.182 -0.371,0.219 -0.406,0 -0.319,-1.972 -1.217,-5.585 0.398,-7.169 2.212,-2.171 7.976,-0.397 10.527,-0.029 5.937,0.858 11.855,1.761 17.825,2.377 5.682,0.586 11.608,0.467 17.197,1.594 C 3.278,-3.95 2.423,-0.19 0,0"
                   style="fill:#ffffff;fill-opacity:1;fill-rule:nonzero;stroke:none;stroke-width:1.36447"
                   id="path74625" />
              </g>
            </g>
          </g>
        </g>
        <g
           id="g74633"
           style="stroke-width:1.36447">
          <g
             id="g74635"
             style="stroke-width:1.36447" />
          <g
             id="g74647"
             style="stroke-width:1.36447">
            <g
               clip-path="url(#clipPath74639)"
               opacity="0.199997"
               id="g74645"
               style="stroke-width:1.86177">
              <g
                 transform="translate(165.1797,189.7637)"
                 id="g74643"
                 style="stroke-width:1.36447">
                <path
                   d="m 0,0 c -0.961,-0.292 -1.656,-1.143 -2.267,-1.905 -0.626,-0.782 -0.995,-1.645 -1.214,-2.62 -0.066,-0.293 0.304,-0.552 0.529,-0.308 0.607,0.658 1.24,1.292 1.854,1.943 0.609,0.646 1.397,1.118 1.892,1.858 C 1.136,-0.521 0.569,0.174 0,0"
                   style="fill:#ffffff;fill-opacity:1;fill-rule:nonzero;stroke:none;stroke-width:1.36447"
                   id="path74641" />
              </g>
            </g>
          </g>
        </g>
        <g
           id="g74649"
           style="stroke-width:1.36447">
          <g
             id="g74651"
             style="stroke-width:1.36447" />
          <g
             id="g74663"
             style="stroke-width:1.36447">
            <g
               clip-path="url(#clipPath74655)"
               opacity="0.199997"
               id="g74661"
               style="stroke-width:1.86177">
              <g
                 transform="translate(251.5459,195.5215)"
                 id="g74659"
                 style="stroke-width:1.36447">
                <path
                   d="M 0,0 C -0.687,0.811 -1.432,1.394 -2.35,1.934 -3.232,2.452 -4.014,2.661 -5.023,2.767 -5.353,2.802 -5.54,2.317 -5.297,2.106 -3.913,0.904 -2.421,-0.133 -0.937,-1.215 -0.184,-1.765 0.529,-0.625 0,0"
                   style="fill:#ffffff;fill-opacity:1;fill-rule:nonzero;stroke:none;stroke-width:1.36447"
                   id="path74657" />
              </g>
            </g>
          </g>
        </g>
        <g
           id="g74665"
           style="stroke-width:1.36447">
          <g
             id="g74667"
             style="stroke-width:1.36447" />
          <g
             id="g74679"
             style="stroke-width:1.36447">
            <g
               clip-path="url(#clipPath74671)"
               opacity="0.199997"
               id="g74677"
               style="stroke-width:1.86177">
              <g
                 transform="translate(176.1289,51.833)"
                 id="g74675"
                 style="stroke-width:1.36447">
                <path
                   d="M 0,0 C -0.539,0.812 -1.183,1.341 -1.868,2.028 -2.627,2.793 -3.299,3.629 -3.903,4.521 -4.056,4.745 -4.388,4.552 -4.268,4.308 -3.415,2.574 -2.248,0.402 -0.433,-0.434 -0.171,-0.554 0.191,-0.289 0,0"
                   style="fill:#ffffff;fill-opacity:1;fill-rule:nonzero;stroke:none;stroke-width:1.36447"
                   id="path74673" />
              </g>
            </g>
          </g>
        </g>
        <g
           id="g74681"
           style="stroke-width:1.36447">
          <g
             id="g74683"
             style="stroke-width:1.36447" />
          <g
             id="g74695"
             style="stroke-width:1.36447">
            <g
               clip-path="url(#clipPath74687)"
               opacity="0.199997"
               id="g74693"
               style="stroke-width:1.86177">
              <g
                 transform="translate(265.9482,70.5693)"
                 id="g74691"
                 style="stroke-width:1.36447">
                <path
                   d="m 0,0 c -0.075,0.604 -1.029,0.884 -1.174,0.159 -0.43,-2.16 -0.396,-4.331 -1.058,-6.465 -0.813,-2.622 -2.133,-4.959 -3.846,-7.091 -0.222,-0.277 0.151,-0.672 0.398,-0.399 C -2.564,-10.341 0.604,-4.838 0,0"
                   style="fill:#ffffff;fill-opacity:1;fill-rule:nonzero;stroke:none;stroke-width:1.36447"
                   id="path74689" />
              </g>
            </g>
          </g>
        </g>
        <g
           id="g74697"
           transform="translate(186.2612,102.3711)"
           style="stroke-width:1.36447">
          <path
             d="m 0,0 c 4.891,5.73 16.5,7.62 22.727,12.134 7.545,5.47 11.565,11.692 16.282,19.623 4.87,8.186 10.294,14.363 17.45,19.829 3.489,2.664 8.899,6.041 14.498,9.782 5.74,3.836 3.016,-10.513 -7.957,-18 -1.702,-1.161 -0.116,-3.46 1.695,-2.478 3.32,1.799 11.209,4.28 14.478,2.739 5.131,-2.419 1.566,-9.782 1.566,-9.782 0,0 2.691,-2.953 2.967,-5.537 0.254,-2.389 -3.912,-5.458 -1.923,-7.116 1.845,-1.54 3.859,-3.755 0.39,-9.652 C 86.292,7.792 80.805,1.357 76.304,-0.85 68.25,-4.798 59.559,-5.319 51.007,-6.13 39.291,-7.24 30.145,-13.839 20.507,-20.069 13.638,-24.51 5.234,-32.577 1.252,-22.945 -1.199,-17.016 -4.596,-5.621 0,0"
             style="fill:#ffaca0;fill-opacity:1;fill-rule:nonzero;stroke:none;stroke-width:1.36447"
             id="path74699" />
        </g>
        <g
           id="g74701"
           transform="translate(108.8188,75.4004)"
           style="stroke-width:1.36447">
          <path
             d="m 0,0 c 2.804,9.401 3.97,16.454 14.04,20.612 9.868,4.075 21.968,4.918 32.309,7.647 10.752,2.838 22.582,5.762 33.627,6.567 8.092,0.591 9.814,-5.435 12.856,-12.488 4.316,-10.005 14.085,-32.779 -0.28,-38.078 -19.905,-7.342 -40.94,-10.629 -61.936,-10.446 -6.932,0.061 -15.345,0.709 -21.129,4.847 C 2.9,-16.627 -2.39,-5.587 0,0"
             style="fill:#ffffff;fill-opacity:1;fill-rule:nonzero;stroke:none;stroke-width:1.36447"
             id="path74703" />
        </g>
        <g
           id="g74705"
           transform="translate(266.6963,136.5469)"
           style="stroke-width:1.36447">
          <path
             d="m 0,0 c -0.233,-0.215 -0.376,-0.485 -0.561,-0.741 -0.161,-0.223 -0.344,-0.432 -0.537,-0.628 -0.407,-0.417 -0.865,-0.772 -1.37,-1.063 -0.493,-0.284 -0.991,-0.574 -1.527,-0.771 -0.572,-0.21 -1.192,-0.29 -1.8,-0.298 -0.275,-0.003 -0.266,-0.394 0,-0.42 1.245,-0.123 2.698,0.061 3.801,0.679 0.561,0.314 1.087,0.709 1.545,1.16 0.445,0.44 1.034,1.04 1.152,1.673 C 0.778,-0.001 0.322,0.295 0,0"
             style="fill:#f2594b;fill-opacity:1;fill-rule:nonzero;stroke:none;stroke-width:1.36447"
             id="path74707" />
        </g>
        <g
           id="g74709"
           transform="translate(267.9326,124.1689)"
           style="stroke-width:1.36447">
          <path
             d="m 0,0 c -0.507,-0.411 -1.079,-0.699 -1.605,-1.074 -0.553,-0.393 -1.105,-0.765 -1.713,-1.069 -1.184,-0.589 -2.376,-1.081 -3.69,-1.289 -0.351,-0.055 -0.245,-0.581 0.08,-0.595 1.454,-0.069 2.952,0.129 4.281,0.737 0.645,0.295 1.271,0.652 1.839,1.078 0.578,0.432 1.039,1.133 1.431,1.731 C 0.888,-0.077 0.326,0.265 0,0"
             style="fill:#f2594b;fill-opacity:1;fill-rule:nonzero;stroke:none;stroke-width:1.36447"
             id="path74711" />
        </g>
        <g
           id="g74713"
           transform="translate(268.8369,114.498)"
           style="stroke-width:1.36447">
          <path
             d="m 0,0 c -0.247,0.042 -0.467,0.065 -0.716,0.036 -0.224,-0.026 -0.45,-0.054 -0.676,-0.08 -0.479,-0.057 -0.938,-0.142 -1.404,-0.269 -0.428,-0.118 -0.851,-0.252 -1.276,-0.378 -0.221,-0.066 -0.443,-0.13 -0.662,-0.198 -0.24,-0.072 -0.435,-0.186 -0.645,-0.318 -0.402,-0.254 -0.195,-0.772 0.224,-0.827 0.266,-0.035 0.471,-0.043 0.738,-0.006 0.23,0.032 0.459,0.065 0.688,0.098 0.427,0.061 0.855,0.115 1.281,0.182 0.427,0.068 0.839,0.158 1.25,0.291 0.455,0.147 0.924,0.257 1.321,0.53 C 0.448,-0.715 0.472,-0.082 0,0"
             style="fill:#f2594b;fill-opacity:1;fill-rule:nonzero;stroke:none;stroke-width:1.36447"
             id="path74715" />
        </g>
        <g
           id="g74717"
           transform="translate(248.3584,145.0947)"
           style="stroke-width:1.36447">
          <path
             d="m 0,0 c -0.195,0.195 -0.584,0.284 -0.821,0.106 -0.36,-0.271 -0.761,-0.483 -1.104,-0.774 -0.046,-0.038 -0.092,-0.076 -0.139,-0.114 -0.011,-0.009 -0.124,-0.098 -0.062,-0.05 0.063,0.048 -0.054,-0.04 -0.065,-0.048 -0.039,-0.029 -0.078,-0.057 -0.118,-0.086 -0.177,-0.126 -0.36,-0.245 -0.547,-0.357 -0.35,-0.21 -0.722,-0.379 -1.078,-0.578 -0.196,-0.111 -0.38,-0.202 -0.534,-0.371 -0.142,-0.158 -0.308,-0.223 -0.503,-0.3 -0.213,-0.084 -0.194,-0.405 0.056,-0.413 0.203,-0.007 0.399,0.006 0.595,-0.05 0.133,-0.038 0.251,-0.084 0.393,-0.078 0.134,0.006 0.272,0.035 0.405,0.054 0.483,0.072 0.928,0.259 1.372,0.457 0.397,0.178 0.78,0.386 1.145,0.624 0.457,0.298 0.784,0.727 1.111,1.158 C 0.284,-0.585 0.194,-0.193 0,0"
             style="fill:#f2594b;fill-opacity:1;fill-rule:nonzero;stroke:none;stroke-width:1.36447"
             id="path74719" />
        </g>
        <g
           id="g74721"
           transform="translate(153.0161,164.6006)"
           style="stroke-width:1.36447">
          <path
             d="m 0,0 c -2.238,-18.199 -5.55,-36.332 -11.204,-53.804 -0.114,-0.352 0.41,-0.475 0.542,-0.149 C -3.605,-36.662 0.87,-18.708 1.336,0 1.358,0.882 0.102,0.829 0,0"
             style="fill:#dedede;fill-opacity:1;fill-rule:nonzero;stroke:none;stroke-width:1.36447"
             id="path74723" />
        </g>
        <g
           id="g74725"
           transform="translate(240.1851,79.6396)"
           style="stroke-width:1.36447">
          <path
             d="M 0,0 C -5.826,11.743 -17.345,5.124 -5.322,-13.816 16.301,-7.836 12.199,4.8 0,0"
             style="fill:#f26d85;fill-opacity:1;fill-rule:nonzero;stroke:none;stroke-width:1.36447"
             id="path74727" />
        </g>
        <g
           id="g74729"
           transform="translate(254.5488,304.8389)"
           style="stroke-width:1.36447">
          <path
             d="M 0,0 C 1.094,-1.736 1.438,-3.851 1.076,-5.876 0.83,-7.254 -0.42,-8.612 -0.053,-9.992 c 0.068,-0.252 0.33,-0.47 0.599,-0.456 1.996,0.106 2.62,3.086 2.781,4.699 0.236,2.38 -0.544,4.646 -1.971,6.542 C 0.766,1.577 -0.553,0.878 0,0"
             style="fill:#f26d85;fill-opacity:1;fill-rule:nonzero;stroke:none;stroke-width:1.36447"
             id="path74731" />
        </g>
        <g
           id="g74733"
           transform="translate(175.2051,325.2187)"
           style="stroke-width:1.36447">
          <path
             d="m 0,0 c -2.909,0.215 -4.152,-2.596 -4.791,-5.052 -0.595,-2.29 -1.378,-6.317 0.848,-7.924 0.38,-0.274 1.028,-0.08 1.235,0.324 0.798,1.564 0.212,3.544 0.382,5.253 0.15,1.515 0.787,5.243 2.538,5.834 C 1.078,-1.273 0.902,-0.067 0,0"
             style="fill:#f26d85;fill-opacity:1;fill-rule:nonzero;stroke:none;stroke-width:1.36447"
             id="path74735" />
        </g>
        <g
           id="g74737"
           transform="translate(201.0479,276.7939)"
           style="stroke-width:1.36447">
          <path
             d="M 0,0 C 1.44,-0.98 2.925,-1.507 4.663,-1.635 5.667,-1.709 8.285,-1.783 8.52,-0.368 8.714,0.799 7.155,0.725 6.39,0.686 4.412,0.584 2.51,0.834 0.65,1.542 -0.291,1.9 -0.744,0.506 0,0"
             style="fill:#f26d85;fill-opacity:1;fill-rule:nonzero;stroke:none;stroke-width:1.36447"
             id="path74739" />
        </g>
      </g>
    </g>
  </g>
</svg>
