<svg width="82" height="82" viewBox="0 0 82 82" fill="none" xmlns="http://www.w3.org/2000/svg">
<path d="M33.123 50.6625L24.4104 51.2244C24.4104 51.2244 8.95213 31.8933 20.6945 11.4033C29.3502 -3.69601 44.9933 -0.404206 52.624 2.37066C52.624 2.37066 61.1346 1.57067 62.6346 14.683C64.1345 27.7953 59.8237 44.0106 50.3612 52.5353L33.123 50.6625Z" fill="#414451"/>
<path d="M53.0419 61.5629L47.8632 71.4264L37.8637 72.6184L29.1839 68.9906L28.0601 60.3721L30.2489 54.0724L30.8709 52.2134C31.3415 51.6982 31.6607 51.0628 31.7928 50.3776C31.9036 49.9542 31.9837 49.5234 32.0329 49.0886C32.0779 48.7366 32.1149 48.3766 32.1329 48.0017C32.2333 45.9201 32.153 43.8338 31.8929 41.7661C31.8929 41.7661 51.292 32.8325 50.4131 41.7661C49.5341 50.6996 51.2671 51.6746 51.2671 51.6746L53.0419 61.5629Z" fill="#F4BB87"/>
<path d="M29.113 61.2509C29.113 61.2509 38.9595 66.1276 53.8709 61.2509V81.9999H32.5828L29.113 61.2509Z" fill="#69B0EE"/>
<path d="M47.8003 13.5942C47.8003 13.5942 47.2384 15.9671 43.4905 16.6552C41.7483 17.0172 40.0396 17.5253 38.3828 18.1742C34.0777 19.7439 30.5809 22.973 28.6742 27.1397C27.2129 30.5225 26.6576 34.2277 27.0633 37.8902C27.0633 37.8902 33.498 48.7576 41.2426 48.6947C48.9872 48.6317 55.5419 38.2643 56.6699 34.7674C56.6699 34.7674 58.7308 34.9233 59.7618 31.8316C60.2677 30.439 60.5166 28.9662 60.4967 27.4848C60.4865 27.1041 60.348 26.738 60.1038 26.4459C59.3311 25.6382 58.1542 25.3637 57.1039 25.746C57.1039 25.7456 50.1111 22.9627 47.8003 13.5942Z" fill="#FED19A"/>
<path d="M51.276 51.6701L44.2764 81.9996H71.2532C73.038 81.9996 74.4851 80.5527 74.4851 78.7677V69.8852C74.4849 62.0164 68.342 55.5163 60.4858 55.0718L56.9069 54.8719C54.887 54.7575 53.0087 53.7987 51.7311 52.23L51.276 51.6701Z" fill="#EEEFEE"/>
<path d="M31.232 51.7724L38.2137 82H11.2319C9.44708 82 8 80.5531 8 78.7681V69.8856C8.00017 62.0169 14.1431 55.5167 21.9993 55.0722L25.5782 54.8723C27.5981 54.7579 29.4764 53.7991 30.7539 52.2304L31.232 51.7724Z" fill="#EEEFEE"/>
<path d="M60.3417 58.1227C56.309 58.1227 53.1419 63.4744 53.1419 70.3091C53.0787 73.2627 53.7646 76.1841 55.1359 78.8007C55.4974 79.4466 55.9337 80.0477 56.4359 80.5915C56.9922 80.576 57.4825 80.2223 57.6729 79.6995C57.1561 79.1594 56.7185 78.5486 56.3729 77.8856C55.1858 75.5393 54.5915 72.9379 54.6419 70.3089C54.6419 64.5153 57.2498 59.6215 60.3417 59.6215C63.4336 59.6215 66.0415 64.5153 66.0415 70.3089C66.0867 72.9409 65.4898 75.5442 64.3025 77.8936C63.9776 78.516 63.5691 79.0908 63.0886 79.6025C63.2333 80.1415 63.7012 80.5313 64.2575 80.5765C64.7826 79.9985 65.238 79.3608 65.6144 78.6765C66.9383 76.0895 67.6005 73.2145 67.5413 70.3089C67.5414 63.4746 64.3764 58.1227 60.3417 58.1227Z" fill="#BBBBCD"/>
<path d="M65.7334 79.236C65.7313 79.9844 65.125 80.5907 64.3765 80.5929C64.3359 80.5954 64.2952 80.5902 64.2566 80.5778C63.7003 80.5326 63.2324 80.1428 63.0877 79.6038C63.0449 79.4864 63.0245 79.3619 63.0277 79.2368C63.0242 78.5205 63.5861 77.9286 64.3016 77.8948C64.3262 77.8888 64.3514 77.8864 64.3765 77.8878C65.1227 77.8844 65.7301 78.4867 65.7334 79.2326V79.2366V79.236Z" fill="#575B6D"/>
<path d="M57.7657 79.2363C57.7671 79.3957 57.7364 79.5538 57.6757 79.7012C57.4853 80.224 56.995 80.5776 56.4388 80.5932H56.4088C55.662 80.5898 55.0588 79.9831 55.0599 79.2363C55.0578 79.0879 55.0832 78.9403 55.1349 78.8013C55.3137 78.2636 55.8123 77.8974 56.3789 77.8874H56.4088C57.1556 77.8862 57.7625 78.4895 57.7657 79.2363Z" fill="#575B6D"/>
<path d="M60.3416 59.6251C60.0068 59.6244 59.713 59.4021 59.6215 59.0801C59.0685 57.4229 58.0217 55.9745 56.6217 54.9292C56.2826 54.692 56.1999 54.2249 56.4371 53.8858C56.6744 53.5467 57.1414 53.4641 57.4805 53.7013C59.1667 54.9404 60.4197 56.6794 61.0614 58.671C61.1735 59.0704 60.9406 59.4849 60.5415 59.597C60.4757 59.6154 60.4078 59.6249 60.3395 59.6249H60.3416V59.6251Z" fill="#BBBBCD"/>
<path d="M32.1428 48.0011C32.1198 48.376 32.0827 48.736 32.0427 49.088C31.9935 49.5228 31.9134 49.9536 31.8027 50.377C30.5028 51.4189 22.3811 58.4936 22.8241 72.592C22.8382 73.0077 22.5128 73.3563 22.0971 73.3709H22.0741C21.6691 73.3701 21.3375 73.0487 21.3242 72.644C20.9424 63.2017 24.9335 54.1106 32.1428 48.0011Z" fill="#BBBBCD"/>
<path d="M21.9263 79.329C23.9968 79.329 25.6752 77.6506 25.6752 75.5802C25.6752 73.5098 23.9968 71.8314 21.9263 71.8314C19.8559 71.8314 18.1775 73.5098 18.1775 75.5802C18.1775 77.6506 19.8559 79.329 21.9263 79.329Z" fill="#575B6D"/>
<path d="M21.9274 77.621C23.0546 77.621 23.9684 76.7072 23.9684 75.58C23.9684 74.4528 23.0546 73.5391 21.9274 73.5391C20.8002 73.5391 19.8865 74.4528 19.8865 75.58C19.8865 76.7072 20.8002 77.621 21.9274 77.621Z" fill="#BBBBCD"/>
</svg>
