<svg width="82" height="82" viewBox="0 0 82 82" fill="none" xmlns="http://www.w3.org/2000/svg">
<g clip-path="url(#clip0_76_2)">
<path d="M64.0252 56.5787C61.8715 55.8433 56.8908 54.1317 53.8985 53.0904C52.2157 52.5219 50.7637 51.3992 49.7687 49.8972C48.7737 48.3952 48.2916 46.5982 48.3975 44.7863V44.6627C46.1727 46.1661 43.5783 46.9946 40.9136 47.0524C40.6849 47.0654 40.4626 47.0524 40.2339 47.0524C37.8146 47.0711 35.4576 46.2678 33.5315 44.7681V44.8592C33.6212 46.6601 33.1308 48.4413 32.1358 49.9288C31.1407 51.4163 29.696 52.5276 28.0241 53.0917C27.0775 53.4171 25.9339 53.8141 24.7459 54.2241C23.0942 53.7621 19.689 48.1262 18.285 40.7201C16.8555 33.2028 16.7666 0 38.4677 0C41.3774 0 43.1054 0.676825 44.1092 1.35365C44.649 1.68008 45.0924 2.15009 45.3925 2.71381C45.8371 2.05779 46.4602 1.55012 47.1842 1.25391C47.9082 0.957697 48.7013 0.886017 49.4648 1.04778C52.222 1.56841 61.1219 6.69016 63.3645 17.7595C65.6071 28.8289 62.5513 33.8731 61.5983 40.9206C60.2451 50.9688 63.86 56.3444 64.0252 56.5787Z" fill="#FC9460"/>
<path d="M72.8749 66.9517C72.6847 64.679 71.8416 62.515 70.452 60.7326C69.0624 58.9502 67.1887 57.6293 65.0671 56.9367C65.0671 56.9367 57.7993 54.4441 53.8986 53.0905C52.913 52.746 52.0001 52.2134 51.2081 51.5208H30.7178C29.9251 52.2141 29.011 52.7468 28.0241 53.0905C24.1234 54.4376 16.8492 56.9367 16.8492 56.9367C14.729 57.6307 12.8568 58.9521 11.4685 60.7344C10.0802 62.5166 9.23788 64.6799 9.04777 66.9517L7.80957 82H74.1068L72.8749 66.9517Z" fill="#78C161"/>
<path d="M61.8277 55.8191V81.9998H20.0886V55.8191C21.842 55.2203 24.0402 54.4654 25.9581 53.8081V70.1821H55.9639V53.8081C57.8825 54.4713 60.0743 55.2268 61.8277 55.8191V55.8191Z" fill="#DBE2EB"/>
<path d="M52.7582 52.5931C50.0073 55.4436 45.0113 57.8105 40.9645 57.8105C36.9176 57.8105 31.9769 55.4182 29.2261 52.5612C31.8054 51.0319 33.7284 47.9146 33.5315 44.7908V44.6997C35.3802 46.1184 46.536 45.778 48.3975 44.4764V44.6001C48.1751 47.7564 50.1534 51.0442 52.7582 52.5931V52.5931Z" fill="#F4BB87"/>
<path d="M54.0389 35.7021C53.3503 39.3198 51.3306 42.528 48.3975 44.6629C45.9911 46.3229 43.1332 47.1595 40.2339 47.0526C37.8151 47.0683 35.459 46.2653 33.5315 44.7683C28.2331 40.7204 26.1309 32.2152 27.6493 27.0414C27.6493 27.0414 43.8106 23.7483 46.7775 11.9241C46.7775 11.9228 57.5896 15.9831 54.0389 35.7021V35.7021Z" fill="#FED19A"/>
</g>
<defs>
<clipPath id="clip0_76_2">
<rect width="82" height="82" fill="white"/>
</clipPath>
</defs>
</svg>
