<svg width="82" height="82" viewBox="0 0 82 82" fill="none" xmlns="http://www.w3.org/2000/svg">
<path d="M82 69.6189V82H0V69.6189C0 66.3437 1.99875 63.3923 5.03787 62.2109L22.3279 55.3859L35.8237 70.2723L40.0588 61.6123V61.5951L41 59.6558L41.9584 61.5953L46.195 70.2723L59.672 55.3859L76.9791 62.2109C80.0012 63.4113 82 66.3437 82 69.6189Z" fill="#EEEFEE"/>
<path d="M53.0951 52.8136H53.1122V45.7656C52.2154 47.1307 51.1732 48.5161 49.9621 49.9018L48.288 51.7538C46.7505 53.4327 44.5639 54.4118 42.2918 54.4118H39.7293C37.4571 54.4118 35.2688 53.4343 33.733 51.7538L32.0589 49.9018C30.834 48.5042 29.78 47.0998 28.8796 45.7211V52.8017L28.907 52.8153L39.4474 58.783L41.002 59.6575L42.5567 58.783L53.0951 52.8136Z" fill="#F4BB87"/>
<g opacity="0.1">
<path d="M36.6796 53.7842C36.6694 53.7808 36.6591 53.7773 36.6489 53.7739C36.6317 53.767 36.613 53.7618 36.5959 53.7567C36.5787 53.7482 36.56 53.7464 36.5361 53.7379L42.9783 58.5411L53.095 52.8135H53.1053L53.1121 45.8015C53.095 45.8272 50.7103 48.9636 49.962 49.8983L48.2879 51.7521C46.7504 53.431 44.5638 54.41 42.2917 54.41H39.7292C39.2115 54.41 38.7042 54.3535 38.207 54.2472C37.6808 54.1461 37.1734 53.9882 36.6796 53.7842Z" fill="#40596B"/>
</g>
<path d="M29.0109 31.4038C29.2774 34.482 27.7894 37.1279 25.6881 37.3097C23.5835 37.4949 21.6616 35.1472 21.39 32.0692C21.1235 28.991 22.6115 26.3485 24.7161 26.1633C26.8191 25.9781 28.7444 28.324 29.0109 31.4038Z" fill="#F4BB87"/>
<path d="M60.6253 32.0727C60.3588 35.1508 58.4336 37.4967 56.3306 37.3115C54.2259 37.1263 52.7362 34.4838 53.0078 31.4056C53.2743 28.3275 55.1995 25.98 57.3025 26.1652C59.4072 26.3468 60.8952 28.9929 60.6253 32.0727Z" fill="#F4BB87"/>
<path d="M58.4337 31.4141C58.1108 34.8609 56.4844 42.456 49.962 49.8983L48.2879 51.7503C46.7504 53.4308 44.5638 54.41 42.2917 54.41H39.7292C37.457 54.41 35.2687 53.4326 33.7329 51.7503L32.0588 49.8983C25.5329 42.456 23.9272 34.8591 23.5838 31.4141C23.1226 26.6639 23.3104 20.6278 23.5838 19.0673C25.1384 9.92726 32.9301 4.2511 41.0106 4.2511C49.0893 4.2511 56.8793 9.92726 58.4338 19.0673C58.707 20.6278 58.8949 26.6657 58.4337 31.4141Z" fill="#FED19A"/>
<path d="M27.6902 8.58451C27.6902 8.58451 27.8098 -2.96153 44.5327 0.727083C44.5327 0.727083 52.8301 3.34387 58.1685 11.0847C58.1685 11.0847 63.1774 18.3866 60.4543 24.5291C59.5694 26.5234 58.6195 28.806 58.7289 30.639C58.7289 30.639 57.8013 26.748 57.2478 23.5054C56.7848 20.7891 55.6198 18.2443 53.8312 16.1556L53.7782 16.0921C50.8826 12.7258 46.3503 11.1516 42.0642 12.2612C40.0193 12.7911 37.6926 13.8252 35.1334 15.6584C35.1334 15.6584 28.1668 10.9648 24.7228 19.1806C24.7228 19.1806 23.1887 25.186 23.4057 29.9292C23.4057 29.9273 13.8168 9.77466 27.6902 8.58451Z" fill="#40596B"/>
<path d="M63.8388 60.1873C63.8047 59.8959 63.738 57.2223 63.1913 56.142C62.267 54.3226 60.6116 53.1067 58.6129 52.7981L53.112 51.6835V52.8153H53.0949L52.3074 53.2611L58.3395 54.4958C59.7916 54.7187 61.0063 55.5933 61.6536 56.9119C62.0808 57.7522 62.255 58.6628 62.1166 59.5544L62.0808 60.0002C54.8545 66.2937 52.8045 71.9697 52.7191 72.2269C52.1759 73.856 52.2084 75.1421 52.8063 76.0681C53.4743 77.1142 54.5641 77.2341 54.7007 77.2513L54.8716 75.5365C54.8545 75.5365 54.4445 75.4662 54.2241 75.1077C53.9507 74.6601 53.9832 73.8388 54.3438 72.7909C54.3609 72.7549 55.3688 69.9632 58.4438 66.1871C59.2979 65.7584 60.2529 65.6744 61.1771 65.9471C62.0655 66.2215 62.8154 66.8234 63.2784 67.626C63.6184 72.5835 62.8684 75.4988 62.8513 75.5159C62.525 76.579 62.0808 77.2822 61.5871 77.4708C61.1943 77.6439 60.8338 77.4536 60.8338 77.4366L60.4066 78.1894L59.9625 78.932C60.0325 78.9834 60.5604 79.2749 61.2609 79.2749C61.5513 79.2749 61.8623 79.2235 62.1852 79.0863C63.2102 78.6936 63.9977 77.6631 64.5068 76.0168C64.5768 75.7598 66.1638 69.7733 63.8388 60.1873ZM61.57 64.6288C61.0558 64.4745 60.5091 64.4076 59.9949 64.4248C60.7329 63.6171 61.5495 62.7958 62.4736 61.9572C62.7299 63.1559 62.9177 64.3049 63.0545 65.3868C62.6104 65.0576 62.1133 64.802 61.57 64.6288Z" fill="#ACB3BA"/>
<path d="M56.204 76.696C56.0674 77.3854 55.3994 77.8347 54.7126 77.6992C54.0293 77.5637 54.5161 75.0652 55.2029 75.2008C55.8898 75.3363 56.339 76.0067 56.204 76.696Z" fill="#334A5E"/>
<path d="M58.9731 77.5536C58.6828 78.1933 58.9595 78.9478 59.5966 79.241C60.2339 79.5342 61.2912 77.221 60.6541 76.926C60.022 76.6327 59.267 76.9139 58.9731 77.5536Z" fill="#334A5E"/>
<path d="M28.9048 52.8136L28.8774 52.7999V51.6818L25.184 52.4449C21.2429 53.2595 17.927 55.7837 16.0786 59.3677C14.2336 62.9551 14.1004 67.1325 15.7181 70.8296L17.283 70.1403C15.8754 66.9198 15.9846 63.2826 17.5974 60.1565C19.2049 57.0356 22.0954 54.8353 25.5258 54.1272L29.6993 53.2647L28.9048 52.8136Z" fill="#ACB3BA"/>
<path d="M59.6721 55.3858L47.0662 71.9854L41 59.6558L42.5546 58.7812L53.095 52.8136H53.1121L53.1291 52.7964L59.6721 55.3858Z" fill="#CDD6E0"/>
<path d="M22.3279 55.3858L34.9543 71.9854L41 59.6558L39.4454 58.7812L28.905 52.8136L28.8709 52.7964L22.3279 55.3858Z" fill="#CDD6E0"/>
<path d="M34.9543 82L38.4035 74.1118L36.9155 71.9167L35.8256 70.2705L40.0588 61.5952L41.0001 59.6558L41.9585 61.5952V61.6123L46.1951 70.2705L45.0847 71.9013L43.5967 74.1118L47.0663 82H34.9543Z" fill="#334A5E"/>
<path d="M46.1949 70.2705L45.0846 71.9013L41.0171 63.5484L36.9153 71.9167L35.8254 70.2705L40.0587 61.5952L40.9999 59.6558L41.9583 61.5952V61.6123L46.1949 70.2705Z" fill="#2A4356"/>
<path d="M21.6377 73.5151C21.6377 75.6586 19.9021 77.3993 17.7665 77.3993C15.631 77.3993 13.8989 75.6586 13.8989 73.5151C13.8989 71.3717 15.6312 69.6328 17.7665 69.6328C19.9019 69.6328 21.6377 71.3715 21.6377 73.5151Z" fill="#334A5E"/>
<path d="M20.3668 73.515C20.3668 74.9555 19.2052 76.1233 17.7702 76.1233C16.3318 76.1233 15.1685 74.9537 15.1685 73.515C15.1685 72.0763 16.3336 70.9067 17.7702 70.9067C19.2052 70.9067 20.3668 72.0745 20.3668 73.515Z" fill="#F2F2F2"/>
<path d="M19.5894 73.5151C19.5894 74.5268 18.7745 75.3432 17.7718 75.3432C16.7639 75.3432 15.9473 74.5252 15.9473 73.5151C15.9473 72.5068 16.7655 71.6888 17.7718 71.6888C18.7745 71.6888 19.5894 72.5068 19.5894 73.5151Z" fill="#ACB3BA"/>
</svg>
